<svg xmlns="http://www.w3.org/2000/svg" viewBox="0 0 96 96"><defs><style>.a{isolation:isolate;}.b{fill:#df5f9a;}.c{fill:#1ba7e0;mix-blend-mode:multiply;}.d{fill:none;}</style></defs><title>icon-Coding</title><g class="a"><path class="b" d="M60.19,66.36A2.4,2.4,0,0,0,62.26,70H65.9A2.4,2.4,0,0,0,68,68.76L79.39,49a.8.8,0,0,0,0-.8L68,28.44a2.4,2.4,0,0,0-2.08-1.2H56.66a2.4,2.4,0,0,0-2.08,3.6s7.23,12,11.16,17.84S60.19,66.36,60.19,66.36Z"/><path class="b" d="M33.39,48.2l10-17.36c.92-1.6.88-5.8-2.88-2.8S16.73,45.74,21.27,53.61L30,68.76A2.4,2.4,0,0,0,32.1,70h9.24a2.4,2.4,0,0,0,2.08-3.6L33.39,49A.8.8,0,0,1,33.39,48.2Z"/><path class="c" d="M54.59,64a2.4,2.4,0,0,0,2.08,3.6H65.9A2.4,2.4,0,0,0,68,66.36L79.39,46.6a.8.8,0,0,0,0-.8L68,26a2.4,2.4,0,0,0-2.08-1.2H56.66a2.4,2.4,0,0,0-2.08,3.6l10,17.36C64.75,46.05,54.59,64,54.59,64Z"/><path class="c" d="M33.39,45.8l10-17.36a2.4,2.4,0,0,0-2.08-3.6H32.1A2.4,2.4,0,0,0,30,26L18.61,45.8a.8.8,0,0,0,0,.8L30,66.36a2.4,2.4,0,0,0,2.08,1.2h9.24A2.4,2.4,0,0,0,43.41,64l-10-17.36A.8.8,0,0,1,33.39,45.8Z"/><rect class="d" width="96" height="96"/></g></svg>